<?xml version="1.0" encoding="UTF-8"?>
<svg xmlns="http://www.w3.org/2000/svg" xmlns:xlink="http://www.w3.org/1999/xlink" width="768" height="768" viewBox="0 0 768 768">
<path fill-rule="nonzero" fill="rgb(13.725491%, 12.156863%, 12.54902%)" fill-opacity="1" d="M 314.4375 231.5625 L 332.21875 231.5625 L 332.21875 235.722656 L 318.59375 235.722656 L 318.59375 326.03125 L 314.4375 326.03125 Z M 314.4375 231.5625 "/>
<path fill-rule="nonzero" fill="rgb(13.725491%, 12.156863%, 12.54902%)" fill-opacity="1" d="M 347.46875 258.359375 L 333.609375 258.359375 L 333.609375 254.195312 L 343.304688 254.195312 L 343.304688 223.710938 L 332.910156 223.710938 L 332.910156 219.554688 L 343.304688 219.554688 L 343.304688 205.695312 L 364.09375 205.695312 L 364.09375 223.695312 L 347.46875 223.695312 Z M 347.46875 219.554688 L 359.941406 219.554688 L 359.941406 209.855469 L 347.46875 209.855469 Z M 347.46875 219.554688 "/>
<path fill-rule="nonzero" fill="rgb(13.725491%, 12.156863%, 12.54902%)" fill-opacity="1" d="M 371.835938 174.171875 L 466.296875 174.171875 L 466.296875 178.328125 L 375.988281 178.328125 L 375.988281 191.953125 L 371.835938 191.953125 Z M 371.835938 174.171875 "/>
<path fill-rule="nonzero" fill="rgb(13.725491%, 12.156863%, 12.54902%)" fill-opacity="1" d="M 316.515625 293.003906 L 301.515625 293.003906 L 301.515625 270.367188 L 331.082031 270.367188 L 331.082031 212.617188 L 323.691406 212.617188 L 323.691406 196.917969 L 308.894531 196.917969 L 308.894531 174.089844 C 308.894531 172.648438 309.46875 171.269531 310.484375 170.25 C 311.503906 169.230469 312.886719 168.660156 314.324219 168.660156 L 337.183594 168.660156 L 337.183594 183.441406 L 352.890625 183.441406 L 352.890625 190.828125 L 410.640625 190.828125 L 410.640625 161.234375 L 433.273438 161.234375 L 433.273438 176.234375 L 429.121094 176.234375 L 429.121094 165.398438 L 414.796875 165.398438 L 414.796875 194.953125 L 348.734375 194.953125 L 348.734375 187.589844 L 333.03125 187.589844 L 333.03125 172.785156 L 314.324219 172.785156 C 313.621094 172.789062 313.054688 173.355469 313.050781 174.058594 L 313.050781 192.765625 L 327.832031 192.765625 L 327.832031 208.46875 L 335.21875 208.46875 L 335.21875 274.523438 L 305.664062 274.523438 L 305.664062 288.839844 L 316.515625 288.839844 Z M 316.515625 293.003906 "/>
<path fill-rule="nonzero" fill="rgb(13.725491%, 12.156863%, 12.54902%)" fill-opacity="1" d="M 364.09375 223.710938 L 346.09375 223.710938 L 346.09375 202.917969 L 359.957031 202.917969 L 359.957031 192.523438 L 364.109375 192.523438 L 364.109375 202.917969 L 394.597656 202.917969 L 394.597656 193.222656 L 398.761719 193.222656 L 398.761719 207.082031 L 364.109375 207.082031 Z M 350.242188 219.554688 L 359.941406 219.554688 L 359.941406 207.082031 L 350.242188 207.082031 Z M 350.242188 219.554688 "/>
<path fill-rule="nonzero" fill="rgb(13.725491%, 12.156863%, 12.54902%)" fill-opacity="1" d="M 305.886719 210.546875 L 310.042969 210.546875 L 310.042969 255.929688 L 305.886719 255.929688 Z M 305.886719 210.546875 "/>
<path fill-rule="nonzero" fill="rgb(13.725491%, 12.156863%, 12.54902%)" fill-opacity="1" d="M 349.019531 166.722656 L 394.402344 166.722656 L 394.402344 170.878906 L 349.019531 170.878906 Z M 349.019531 166.722656 "/>
</svg>
