<?xml version="1.0" encoding="UTF-8"?>
<svg xmlns="http://www.w3.org/2000/svg" xmlns:xlink="http://www.w3.org/1999/xlink" width="300" height="300" viewBox="0 0 300 300">
<path fill-rule="nonzero" fill="rgb(0%, 0%, 0%)" fill-opacity="1" d="M 21.34375 300 L 21.34375 132.035156 L 52.21875 132.035156 L 52.21875 139.4375 L 28.558594 139.4375 L 28.558594 300 Z M 21.34375 300 "/>
<path fill-rule="nonzero" fill="rgb(0%, 0%, 0%)" fill-opacity="1" d="M 78.6875 179.679688 L 54.625 179.679688 L 54.625 172.28125 L 71.460938 172.28125 L 71.460938 118.074219 L 53.414062 118.074219 L 53.414062 110.6875 L 71.460938 110.6875 L 71.460938 86.046875 L 107.558594 86.046875 L 107.558594 118.046875 L 78.6875 118.046875 Z M 78.6875 110.6875 L 100.34375 110.6875 L 100.34375 93.445312 L 78.6875 93.445312 Z M 78.6875 110.6875 "/>
<path fill-rule="nonzero" fill="rgb(0%, 0%, 0%)" fill-opacity="1" d="M 120.996094 61.617188 L 120.996094 30 L 285 30 L 285 37.386719 L 128.210938 37.386719 L 128.210938 61.617188 Z M 120.996094 61.617188 "/>
<path fill-rule="nonzero" fill="rgb(0%, 0%, 0%)" fill-opacity="1" d="M 24.949219 241.273438 L -1.09375 241.273438 L -1.09375 201.03125 L 50.238281 201.03125 L 50.238281 98.351562 L 37.410156 98.351562 L 37.410156 70.445312 L 11.71875 70.445312 L 11.71875 29.851562 C 11.71875 27.292969 12.714844 24.835938 14.480469 23.027344 C 16.25 21.214844 18.648438 20.199219 21.148438 20.199219 L 60.835938 20.199219 L 60.835938 46.480469 L 88.105469 46.480469 L 88.105469 59.617188 L 188.367188 59.617188 L 188.367188 6.996094 L 227.667969 6.996094 L 227.667969 33.667969 L 220.453125 33.667969 L 220.453125 14.398438 L 195.582031 14.398438 L 195.582031 66.949219 L 80.890625 66.949219 L 80.890625 53.855469 L 53.625 53.855469 L 53.625 27.53125 L 21.148438 27.53125 C 19.929688 27.539062 18.941406 28.550781 18.933594 29.800781 L 18.933594 63.054688 L 44.597656 63.054688 L 44.597656 90.980469 L 57.425781 90.980469 L 57.425781 208.417969 L 6.109375 208.417969 L 6.109375 233.875 L 24.949219 233.875 Z M 24.949219 241.273438 "/>
<path fill-rule="nonzero" fill="rgb(0%, 0%, 0%)" fill-opacity="1" d="M 107.558594 118.074219 L 76.304688 118.074219 L 76.304688 81.113281 L 100.371094 81.113281 L 100.371094 62.628906 L 107.582031 62.628906 L 107.582031 81.113281 L 160.515625 81.113281 L 160.515625 63.871094 L 167.742188 63.871094 L 167.742188 88.511719 L 107.582031 88.511719 Z M 83.507812 110.6875 L 100.34375 110.6875 L 100.34375 88.511719 L 83.507812 88.511719 Z M 83.507812 110.6875 "/>
<path fill-rule="nonzero" fill="rgb(0%, 0%, 0%)" fill-opacity="1" d="M 6.5 94.671875 L 13.710938 94.671875 L 13.710938 175.359375 L 6.5 175.359375 Z M 6.5 94.671875 "/>
<path fill-rule="nonzero" fill="rgb(0%, 0%, 0%)" fill-opacity="1" d="M 81.386719 16.757812 L 160.175781 16.757812 L 160.175781 24.144531 L 81.386719 24.144531 Z M 81.386719 16.757812 "/>
</svg>
