<?xml version="1.0" standalone="no"?>
<!DOCTYPE svg PUBLIC "-//W3C//DTD SVG 20010904//EN"
 "http://www.w3.org/TR/2001/REC-SVG-20010904/DTD/svg10.dtd">
<svg version="1.0" xmlns="http://www.w3.org/2000/svg"
 width="883.000000pt" height="808.000000pt" viewBox="0 0 883.000000 808.000000"
 preserveAspectRatio="xMidYMid meet">
<metadata>
Created by potrace 1.16, written by Peter Selinger 2001-2019
</metadata>
<g transform="translate(0.000000,808.000000) scale(0.100000,-0.100000)"
fill="#000000" stroke="none">
<path d="M4416 7979 c-460 -33 -950 -152 -1317 -322 -299 -138 -473 -238 -707
-406 -646 -464 -1138 -1119 -1408 -1874 -74 -206 -160 -551 -150 -601 7 -35
48 -91 79 -108 17 -10 166 -14 629 -18 l608 -5 36 -36 c66 -67 56 -171 -21
-219 -32 -20 -53 -20 -941 -20 -845 0 -911 -1 -944 -18 -97 -48 -107 -185 -17
-240 34 -22 35 -22 726 -22 756 0 732 2 784 -59 38 -45 43 -89 18 -145 -16
-37 -29 -51 -63 -66 -41 -19 -69 -20 -591 -20 l-548 0 -42 -39 c-40 -37 -42
-43 -42 -95 0 -64 22 -101 76 -128 31 -17 83 -18 650 -18 l616 0 33 -23 c85
-57 91 -156 15 -227 l-27 -25 -431 -5 c-472 -5 -468 -5 -516 -66 -35 -45 -36
-83 -2 -202 270 -948 921 -1778 1794 -2289 759 -444 1657 -614 2553 -483 562
82 1101 291 1584 613 894 597 1506 1538 1685 2592 45 265 58 450 52 745 -6
269 -18 400 -57 615 -141 788 -530 1524 -1104 2090 -676 666 -1538 1055 -2491
1125 -157 11 -356 11 -519 -1z m474 -519 c1133 -76 2137 -686 2718 -1650 121
-200 248 -480 316 -698 68 -217 126 -506 146 -732 13 -149 13 -473 -1 -620
-59 -654 -315 -1299 -708 -1785 -89 -111 -93 -115 -156 -184 -533 -582 -1247
-961 -2040 -1081 -179 -28 -594 -38 -771 -21 -511 52 -974 202 -1408 454 -427
249 -817 607 -1080 991 -127 184 -284 468 -316 569 -33 105 51 200 160 182 22
-4 49 -14 60 -23 11 -10 46 -71 79 -137 212 -433 497 -790 866 -1086 708 -568
1653 -797 2555 -618 438 87 870 282 1244 563 601 452 1024 1104 1176 1817 48
221 62 354 66 609 7 528 -89 966 -316 1435 -298 615 -775 1094 -1402 1407
-419 209 -840 313 -1318 325 -523 13 -957 -82 -1425 -312 -332 -164 -589 -348
-845 -605 -311 -312 -525 -638 -696 -1064 -36 -88 -71 -167 -77 -175 -7 -8
-31 -23 -54 -33 -36 -16 -49 -17 -82 -8 -83 22 -126 100 -101 183 67 230 275
641 437 863 271 374 607 689 978 919 607 377 1318 561 1995 515z m-472 -1729
c78 -37 146 -100 159 -148 4 -15 8 -147 8 -293 l0 -265 -365 -122 c-201 -67
-368 -123 -372 -123 -5 0 -8 140 -8 310 l0 310 -355 0 c-195 0 -355 -2 -355
-4 0 -2 76 -30 170 -61 l170 -57 2 -1301 3 -1302 183 -3 182 -2 0 187 0 188
368 123 c202 67 371 122 375 122 12 0 8 -750 -4 -793 -16 -57 -72 -112 -157
-155 l-76 -37 -650 -3 c-676 -3 -718 -1 -796 38 -52 27 -125 103 -154 162
l-26 52 0 1484 c0 1049 3 1496 11 1527 6 24 26 61 44 83 36 42 130 96 191 111
22 5 325 9 709 8 l670 -2 73 -34z m2038 25 c117 -31 209 -106 233 -191 8 -27
11 -122 9 -289 l-3 -250 -369 -123 c-203 -68 -370 -122 -372 -120 -2 2 -5 141
-7 308 l-2 304 -183 3 -183 2 1 -227 c0 -126 1 -377 0 -559 l0 -331 -170 -113
c-93 -63 -168 -115 -167 -117 2 -1 327 105 723 237 395 132 722 240 726 240
12 0 10 -1948 -2 -2010 -18 -94 -92 -162 -220 -201 -63 -19 -91 -20 -730 -17
l-665 3 -66 31 c-37 18 -85 48 -107 69 -69 62 -73 83 -70 380 l3 260 365 122
c201 68 368 123 373 123 4 0 7 -140 7 -310 l0 -310 183 2 182 3 3 557 2 558
173 115 c94 63 169 115 167 115 -3 0 -330 -108 -725 -240 -396 -132 -723 -240
-727 -240 -5 0 -8 474 -8 1052 l0 1052 -62 63 -62 63 849 0 c688 0 860 -3 901
-14z"/>
</g>
</svg>
